<?xml version="1.0" standalone="no"?>
<!DOCTYPE svg PUBLIC "-//W3C//DTD SVG 20010904//EN"
 "http://www.w3.org/TR/2001/REC-SVG-20010904/DTD/svg10.dtd">
<svg version="1.0" xmlns="http://www.w3.org/2000/svg"
 width="700.000000pt" height="700.000000pt" viewBox="0 0 700.000000 700.000000"
 preserveAspectRatio="xMidYMid meet">
<metadata>
Created by potrace 1.11, written by Peter Selinger 2001-2013
</metadata>
<g transform="translate(0.000000,700.000000) scale(0.100000,-0.100000)"
fill="#000000" stroke="none">
<path d="M3133 6904 c-1519 -165 -2749 -1319 -3008 -2821 -60 -352 -60 -814 0
-1166 160 -925 706 -1760 1490 -2272 478 -313 973 -491 1530 -550 180 -19 530
-19 710 0 1429 152 2614 1177 2965 2567 70 277 100 530 100 838 0 542 -110
1021 -345 1505 -470 969 -1407 1677 -2465 1865 -283 50 -700 65 -977 34z
m2138 -2271 c-23 -43 -1748 -2457 -1757 -2459 -8 -2 -1823 2441 -1832 2467 -2
5 718 9 1798 9 1712 0 1800 -1 1791 -17z m-2675 -1743 c503 -729 917 -1326
922 -1328 4 -1 419 596 922 1328 l913 1330 354 0 353 0 0 -125 0 -125 -287 0
-288 0 -980 -1430 c-539 -786 -982 -1429 -985 -1429 -3 0 -448 643 -989 1430
l-984 1429 -304 0 -303 0 0 125 0 125 371 -2 371 -3 914 -1325z"/>
<path d="M2244 4455 c48 -73 1250 -1802 1260 -1813 10 -10 134 162 645 893
348 498 635 913 638 921 4 12 -45 14 -354 14 l-358 0 -269 -420 c-148 -231
-270 -420 -272 -420 -1 0 -112 191 -245 425 l-243 425 -409 0 -409 0 16 -25z"/>
</g>
</svg>
