<?xml version="1.0" encoding="UTF-8" standalone="no"?>
<!DOCTYPE svg PUBLIC "-//W3C//DTD SVG 1.1//EN"
 "http://www.w3.org/Graphics/SVG/1.1/DTD/svg11.dtd">
<!-- Generated by graphviz version 2.38.0 (20140413.2041)
 -->
<!-- Title: G Pages: 1 -->
<svg width="1283pt" height="1070pt"
 viewBox="0.00 0.00 1283.00 1069.50" xmlns="http://www.w3.org/2000/svg" xmlns:xlink="http://www.w3.org/1999/xlink">
<g id="graph0" class="graph" transform="scale(1 1) rotate(0) translate(36 1033.5)">
<title>G</title>
<polygon fill="#ffffff" stroke="none" points="-36,36 -36,-1033.5 1247,-1033.5 1247,36 -36,36"/>
<!-- appchannel -->
<g id="node1" class="node"><title>appchannel</title>
<polygon fill="none" stroke="black" points="161,-767 0,-767 0,-545 161,-545 161,-767"/>
<polygon fill="#d3d3d3" stroke="none" points="0.5,-730 0.5,-767 161.5,-767 161.5,-730 0.5,-730"/>
<polygon fill="none" stroke="black" points="0.5,-730 0.5,-767 161.5,-767 161.5,-730 0.5,-730"/>
<text text-anchor="start" x="54.5" y="-744.8" font-family="Nunito" font-size="14.00" fill="#333333">Channel</text>
<polygon fill="#ffffff" stroke="none" points="0.5,-693 0.5,-730 161.5,-730 161.5,-693 0.5,-693"/>
<polygon fill="none" stroke="black" points="0.5,-693 0.5,-730 161.5,-730 161.5,-693 0.5,-693"/>
<text text-anchor="start" x="11.5" y="-707.8" font-family="Nunito" font-size="14.00" fill="#333333">id (bigint)</text>
<polygon fill="#ffffff" stroke="none" points="0.5,-656 0.5,-693 161.5,-693 161.5,-656 0.5,-656"/>
<polygon fill="none" stroke="black" points="0.5,-656 0.5,-693 161.5,-693 161.5,-656 0.5,-656"/>
<text text-anchor="start" x="11.5" y="-670.8" font-family="Nunito" font-size="14.00" fill="#333333">name (string)</text>
<polygon fill="#ffffff" stroke="none" points="0.5,-619 0.5,-656 161.5,-656 161.5,-619 0.5,-619"/>
<polygon fill="none" stroke="black" points="0.5,-619 0.5,-656 161.5,-656 161.5,-619 0.5,-619"/>
<text text-anchor="start" x="11.5" y="-633.8" font-family="Nunito" font-size="14.00" fill="#333333">description (string)</text>
<polygon fill="#ffffff" stroke="none" points="0.5,-582 0.5,-619 161.5,-619 161.5,-582 0.5,-582"/>
<polygon fill="none" stroke="black" points="0.5,-582 0.5,-619 161.5,-619 161.5,-582 0.5,-582"/>
<text text-anchor="start" x="11.5" y="-596.8" font-family="Nunito" font-size="14.00" fill="#333333">created_at (datetime)</text>
<polygon fill="#ffffff" stroke="none" points="0.5,-545 0.5,-582 161.5,-582 161.5,-545 0.5,-545"/>
<polygon fill="none" stroke="black" points="0.5,-545 0.5,-582 161.5,-582 161.5,-545 0.5,-545"/>
<text text-anchor="start" x="11.5" y="-559.8" font-family="Nunito" font-size="14.00" fill="#333333">updated_at (datetime)</text>
</g>
<!-- appdevice -->
<g id="node2" class="node"><title>appdevice</title>
<polygon fill="none" stroke="black" points="514.5,-997.5 353.5,-997.5 353.5,-664.5 514.5,-664.5 514.5,-997.5"/>
<polygon fill="#d3d3d3" stroke="none" points="354,-960 354,-997 515,-997 515,-960 354,-960"/>
<polygon fill="none" stroke="black" points="354,-960 354,-997 515,-997 515,-960 354,-960"/>
<text text-anchor="start" x="413" y="-974.8" font-family="Nunito" font-size="14.00" fill="#333333">Device</text>
<polygon fill="#ffffff" stroke="none" points="354,-923 354,-960 515,-960 515,-923 354,-923"/>
<polygon fill="none" stroke="black" points="354,-923 354,-960 515,-960 515,-923 354,-923"/>
<text text-anchor="start" x="365" y="-937.8" font-family="Nunito" font-size="14.00" fill="#333333">id (bigint)</text>
<polygon fill="#ffffff" stroke="none" points="354,-886 354,-923 515,-923 515,-886 354,-886"/>
<polygon fill="none" stroke="black" points="354,-886 354,-923 515,-923 515,-886 354,-886"/>
<text text-anchor="start" x="365" y="-900.8" font-family="Nunito" font-size="14.00" fill="#333333">user_id (bigint)</text>
<polygon fill="#ffffff" stroke="none" points="354,-849 354,-886 515,-886 515,-849 354,-849"/>
<polygon fill="none" stroke="black" points="354,-849 354,-886 515,-886 515,-849 354,-849"/>
<text text-anchor="start" x="365" y="-863.8" font-family="Nunito" font-size="14.00" fill="#333333">channel_id (bigint)</text>
<polygon fill="#ffffff" stroke="none" points="354,-812 354,-849 515,-849 515,-812 354,-812"/>
<polygon fill="none" stroke="black" points="354,-812 354,-849 515,-849 515,-812 354,-812"/>
<text text-anchor="start" x="365" y="-826.8" font-family="Nunito" font-size="14.00" fill="#333333">name (string)</text>
<polygon fill="#ffffff" stroke="none" points="354,-775 354,-812 515,-812 515,-775 354,-775"/>
<polygon fill="none" stroke="black" points="354,-775 354,-812 515,-812 515,-775 354,-775"/>
<text text-anchor="start" x="365" y="-789.8" font-family="Nunito" font-size="14.00" fill="#333333">description (string)</text>
<polygon fill="#ffffff" stroke="none" points="354,-738 354,-775 515,-775 515,-738 354,-738"/>
<polygon fill="none" stroke="black" points="354,-738 354,-775 515,-775 515,-738 354,-738"/>
<text text-anchor="start" x="365" y="-752.8" font-family="Nunito" font-size="14.00" fill="#333333">location (string)</text>
<polygon fill="#ffffff" stroke="none" points="354,-701 354,-738 515,-738 515,-701 354,-701"/>
<polygon fill="none" stroke="black" points="354,-701 354,-738 515,-738 515,-701 354,-701"/>
<text text-anchor="start" x="365" y="-715.8" font-family="Nunito" font-size="14.00" fill="#333333">created_at (datetime)</text>
<polygon fill="#ffffff" stroke="none" points="354,-664 354,-701 515,-701 515,-664 354,-664"/>
<polygon fill="none" stroke="black" points="354,-664 354,-701 515,-701 515,-664 354,-664"/>
<text text-anchor="start" x="365" y="-678.8" font-family="Nunito" font-size="14.00" fill="#333333">updated_at (datetime)</text>
</g>
<!-- appchannel&#45;&gt;appdevice -->
<g id="edge1" class="edge"><title>appchannel:id&#45;&gt;appdevice:channel_id</title>
<path fill="none" stroke="#ff851b" d="M161,-712C161,-712 233,-786 233,-786 233,-786 316.855,-843.301 344.37,-862.103"/>
<polygon fill="#ff851b" stroke="#ff851b" points="344.744,-862.358 350.461,-871.715 348.872,-865.179 353,-868 353,-868 353,-868 348.872,-865.179 355.539,-864.285 344.744,-862.358 344.744,-862.358"/>
<text text-anchor="middle" x="235" y="-792.8" font-family="Nunito" font-size="14.00"> </text>
<text text-anchor="middle" x="276.562" y="-813.726" font-family="Nunito" font-size="14.00">HasMany</text>
<text text-anchor="middle" x="276.562" y="-798.726" font-family="Nunito" font-size="14.00">devices</text>
</g>
<!-- appscreen -->
<g id="node3" class="node"><title>appscreen</title>
<polygon fill="none" stroke="black" points="559,-592 309,-592 309,-0 559,-0 559,-592"/>
<polygon fill="#d3d3d3" stroke="none" points="309,-555 309,-592 559,-592 559,-555 309,-555"/>
<polygon fill="none" stroke="black" points="309,-555 309,-592 559,-592 559,-555 309,-555"/>
<text text-anchor="start" x="411.5" y="-569.8" font-family="Nunito" font-size="14.00" fill="#333333">Screen</text>
<polygon fill="#ffffff" stroke="none" points="309,-518 309,-555 559,-555 559,-518 309,-518"/>
<polygon fill="none" stroke="black" points="309,-518 309,-555 559,-555 559,-518 309,-518"/>
<text text-anchor="start" x="320" y="-532.8" font-family="Nunito" font-size="14.00" fill="#333333">id (bigint)</text>
<polygon fill="#ffffff" stroke="none" points="309,-481 309,-518 559,-518 559,-481 309,-481"/>
<polygon fill="none" stroke="black" points="309,-481 309,-518 559,-518 559,-481 309,-481"/>
<text text-anchor="start" x="320" y="-495.8" font-family="Nunito" font-size="14.00" fill="#333333">channel_id (bigint)</text>
<polygon fill="#ffffff" stroke="none" points="309,-444 309,-481 559,-481 559,-444 309,-444"/>
<polygon fill="none" stroke="black" points="309,-444 309,-481 559,-481 559,-444 309,-444"/>
<text text-anchor="start" x="320" y="-458.8" font-family="Nunito" font-size="14.00" fill="#333333">layout_id (bigint)</text>
<polygon fill="#ffffff" stroke="none" points="309,-407 309,-444 559,-444 559,-407 309,-407"/>
<polygon fill="none" stroke="black" points="309,-407 309,-444 559,-444 559,-407 309,-407"/>
<text text-anchor="start" x="320" y="-421.8" font-family="Nunito" font-size="14.00" fill="#333333">name (string)</text>
<polygon fill="#ffffff" stroke="none" points="309,-370 309,-407 559,-407 559,-370 309,-370"/>
<polygon fill="none" stroke="black" points="309,-370 309,-407 559,-407 559,-370 309,-370"/>
<text text-anchor="start" x="320" y="-384.8" font-family="Nunito" font-size="14.00" fill="#333333">description (string)</text>
<polygon fill="#ffffff" stroke="none" points="309,-333 309,-370 559,-370 559,-333 309,-333"/>
<polygon fill="none" stroke="black" points="309,-333 309,-370 559,-370 559,-333 309,-333"/>
<text text-anchor="start" x="320" y="-347.8" font-family="Nunito" font-size="14.00" fill="#333333">background_color (string)</text>
<polygon fill="#ffffff" stroke="none" points="309,-296 309,-333 559,-333 559,-296 309,-296"/>
<polygon fill="none" stroke="black" points="309,-296 309,-333 559,-333 559,-296 309,-296"/>
<text text-anchor="start" x="320" y="-310.8" font-family="Nunito" font-size="14.00" fill="#333333">text_color (string)</text>
<polygon fill="#ffffff" stroke="none" points="309,-259 309,-296 559,-296 559,-259 309,-259"/>
<polygon fill="none" stroke="black" points="309,-259 309,-296 559,-296 559,-259 309,-259"/>
<text text-anchor="start" x="320" y="-273.8" font-family="Nunito" font-size="14.00" fill="#333333">cdn_link_background_image (string)</text>
<polygon fill="#ffffff" stroke="none" points="309,-222 309,-259 559,-259 559,-222 309,-222"/>
<polygon fill="none" stroke="black" points="309,-222 309,-259 559,-259 559,-222 309,-222"/>
<text text-anchor="start" x="320" y="-236.8" font-family="Nunito" font-size="14.00" fill="#333333">overlay_color (string)</text>
<polygon fill="#ffffff" stroke="none" points="309,-185 309,-222 559,-222 559,-185 309,-185"/>
<polygon fill="none" stroke="black" points="309,-185 309,-222 559,-222 559,-185 309,-185"/>
<text text-anchor="start" x="320" y="-199.8" font-family="Nunito" font-size="14.00" fill="#333333">overlay_opacity (decimal)</text>
<polygon fill="#ffffff" stroke="none" points="309,-148 309,-185 559,-185 559,-148 309,-148"/>
<polygon fill="none" stroke="black" points="309,-148 309,-185 559,-185 559,-148 309,-148"/>
<text text-anchor="start" x="320" y="-162.8" font-family="Nunito" font-size="14.00" fill="#333333">heading (string)</text>
<polygon fill="#ffffff" stroke="none" points="309,-111 309,-148 559,-148 559,-111 309,-111"/>
<polygon fill="none" stroke="black" points="309,-111 309,-148 559,-148 559,-111 309,-111"/>
<text text-anchor="start" x="320" y="-125.8" font-family="Nunito" font-size="14.00" fill="#333333">subheading (string)</text>
<polygon fill="#ffffff" stroke="none" points="309,-74 309,-111 559,-111 559,-74 309,-74"/>
<polygon fill="none" stroke="black" points="309,-74 309,-111 559,-111 559,-74 309,-74"/>
<text text-anchor="start" x="320" y="-88.8" font-family="Nunito" font-size="14.00" fill="#333333">html_block (text)</text>
<polygon fill="#ffffff" stroke="none" points="309,-37 309,-74 559,-74 559,-37 309,-37"/>
<polygon fill="none" stroke="black" points="309,-37 309,-74 559,-74 559,-37 309,-37"/>
<text text-anchor="start" x="320" y="-51.8" font-family="Nunito" font-size="14.00" fill="#333333">created_at (datetime)</text>
<polygon fill="#ffffff" stroke="none" points="309,-0 309,-37 559,-37 559,-0 309,-0"/>
<polygon fill="none" stroke="black" points="309,-0 309,-37 559,-37 559,-0 309,-0"/>
<text text-anchor="start" x="320" y="-14.8" font-family="Nunito" font-size="14.00" fill="#333333">updated_at (datetime)</text>
</g>
<!-- appchannel&#45;&gt;appscreen -->
<g id="edge2" class="edge"><title>appchannel:id&#45;&gt;appscreen:channel_id</title>
<path fill="none" stroke="#ff851b" d="M161,-712C161,-712 275.835,-547.506 303.198,-508.311"/>
<polygon fill="#ff851b" stroke="#ff851b" points="303.276,-508.2 312.69,-502.576 306.138,-504.1 309,-500 309,-500 309,-500 306.138,-504.1 305.31,-497.424 303.276,-508.2 303.276,-508.2"/>
<text text-anchor="middle" x="235" y="-609.8" font-family="Nunito" font-size="14.00"> </text>
<text text-anchor="middle" x="201.599" y="-628.955" font-family="Nunito" font-size="14.00">HasMany</text>
<text text-anchor="middle" x="201.599" y="-613.955" font-family="Nunito" font-size="14.00">screens</text>
</g>
<!-- appdevice&#45;&gt;appchannel -->
<g id="edge4" class="edge"><title>appdevice:channel_id&#45;&gt;appchannel:id</title>
<path fill="none" stroke="#39cccc" d="M345.389,-860.848C319.582,-836.599 237,-759 237,-759 237,-759 181.888,-724.918 165.527,-714.799"/>
<polygon fill="#39cccc" stroke="#39cccc" points="345.712,-861.152 349.918,-871.279 349.356,-864.576 353,-868 353,-868 353,-868 349.356,-864.576 356.082,-864.721 345.712,-861.152 345.712,-861.152"/>
<polygon fill="#39cccc" stroke="#39cccc" points="159.221,-716.779 164.48,-708.273 166.181,-709.325 160.922,-717.83 159.221,-716.779"/>
<polyline fill="none" stroke="#39cccc" points="161,-712 165.253,-714.63 "/>
<text text-anchor="middle" x="235" y="-762.8" font-family="Nunito" font-size="14.00"> </text>
<text text-anchor="middle" x="295.073" y="-769.951" font-family="Nunito" font-size="14.00">BelongsTo</text>
<text text-anchor="middle" x="295.073" y="-754.951" font-family="Nunito" font-size="14.00">channel</text>
</g>
<!-- appuser -->
<g id="node4" class="node"><title>appuser</title>
<polygon fill="none" stroke="black" points="902,-942.5 707,-942.5 707,-535.5 902,-535.5 902,-942.5"/>
<polygon fill="#d3d3d3" stroke="none" points="707.5,-905 707.5,-942 902.5,-942 902.5,-905 707.5,-905"/>
<polygon fill="none" stroke="black" points="707.5,-905 707.5,-942 902.5,-942 902.5,-905 707.5,-905"/>
<text text-anchor="start" x="789.5" y="-919.8" font-family="Nunito" font-size="14.00" fill="#333333">User</text>
<polygon fill="#ffffff" stroke="none" points="707.5,-868 707.5,-905 902.5,-905 902.5,-868 707.5,-868"/>
<polygon fill="none" stroke="black" points="707.5,-868 707.5,-905 902.5,-905 902.5,-868 707.5,-868"/>
<text text-anchor="start" x="718.5" y="-882.8" font-family="Nunito" font-size="14.00" fill="#333333">id (bigint)</text>
<polygon fill="#ffffff" stroke="none" points="707.5,-831 707.5,-868 902.5,-868 902.5,-831 707.5,-831"/>
<polygon fill="none" stroke="black" points="707.5,-831 707.5,-868 902.5,-868 902.5,-831 707.5,-831"/>
<text text-anchor="start" x="718.5" y="-845.8" font-family="Nunito" font-size="14.00" fill="#333333">username (string)</text>
<polygon fill="#ffffff" stroke="none" points="707.5,-794 707.5,-831 902.5,-831 902.5,-794 707.5,-794"/>
<polygon fill="none" stroke="black" points="707.5,-794 707.5,-831 902.5,-831 902.5,-794 707.5,-794"/>
<text text-anchor="start" x="718.5" y="-808.8" font-family="Nunito" font-size="14.00" fill="#333333">first_name (string)</text>
<polygon fill="#ffffff" stroke="none" points="707.5,-757 707.5,-794 902.5,-794 902.5,-757 707.5,-757"/>
<polygon fill="none" stroke="black" points="707.5,-757 707.5,-794 902.5,-794 902.5,-757 707.5,-757"/>
<text text-anchor="start" x="718.5" y="-771.8" font-family="Nunito" font-size="14.00" fill="#333333">last_name (string)</text>
<polygon fill="#ffffff" stroke="none" points="707.5,-720 707.5,-757 902.5,-757 902.5,-720 707.5,-720"/>
<polygon fill="none" stroke="black" points="707.5,-720 707.5,-757 902.5,-757 902.5,-720 707.5,-720"/>
<text text-anchor="start" x="718.5" y="-734.8" font-family="Nunito" font-size="14.00" fill="#333333">email (string)</text>
<polygon fill="#ffffff" stroke="none" points="707.5,-683 707.5,-720 902.5,-720 902.5,-683 707.5,-683"/>
<polygon fill="none" stroke="black" points="707.5,-683 707.5,-720 902.5,-720 902.5,-683 707.5,-683"/>
<text text-anchor="start" x="718.5" y="-697.8" font-family="Nunito" font-size="14.00" fill="#333333">email_verified_at (datetime)</text>
<polygon fill="#ffffff" stroke="none" points="707.5,-646 707.5,-683 902.5,-683 902.5,-646 707.5,-646"/>
<polygon fill="none" stroke="black" points="707.5,-646 707.5,-683 902.5,-683 902.5,-646 707.5,-646"/>
<text text-anchor="start" x="718.5" y="-660.8" font-family="Nunito" font-size="14.00" fill="#333333">password (string)</text>
<polygon fill="#ffffff" stroke="none" points="707.5,-609 707.5,-646 902.5,-646 902.5,-609 707.5,-609"/>
<polygon fill="none" stroke="black" points="707.5,-609 707.5,-646 902.5,-646 902.5,-609 707.5,-609"/>
<text text-anchor="start" x="718.5" y="-623.8" font-family="Nunito" font-size="14.00" fill="#333333">remember_token (string)</text>
<polygon fill="#ffffff" stroke="none" points="707.5,-572 707.5,-609 902.5,-609 902.5,-572 707.5,-572"/>
<polygon fill="none" stroke="black" points="707.5,-572 707.5,-609 902.5,-609 902.5,-572 707.5,-572"/>
<text text-anchor="start" x="718.5" y="-586.8" font-family="Nunito" font-size="14.00" fill="#333333">created_at (datetime)</text>
<polygon fill="#ffffff" stroke="none" points="707.5,-535 707.5,-572 902.5,-572 902.5,-535 707.5,-535"/>
<polygon fill="none" stroke="black" points="707.5,-535 707.5,-572 902.5,-572 902.5,-535 707.5,-535"/>
<text text-anchor="start" x="718.5" y="-549.8" font-family="Nunito" font-size="14.00" fill="#333333">updated_at (datetime)</text>
</g>
<!-- appdevice&#45;&gt;appuser -->
<g id="edge3" class="edge"><title>appdevice:user_id&#45;&gt;appuser:id</title>
<path fill="none" stroke="#39cccc" d="M526,-904.058C560.848,-900.774 676.21,-889.902 701.9,-887.481"/>
<polygon fill="#39cccc" stroke="#39cccc" points="525.956,-904.062 515.578,-900.52 520.978,-904.531 516,-905 516,-905 516,-905 520.978,-904.531 516.422,-909.48 525.956,-904.062 525.956,-904.062"/>
<polygon fill="#39cccc" stroke="#39cccc" points="705.535,-882.116 706.474,-892.072 704.482,-892.259 703.544,-882.304 705.535,-882.116"/>
<polyline fill="none" stroke="#39cccc" points="707,-887 702.022,-887.469 "/>
<text text-anchor="middle" x="633" y="-896.8" font-family="Nunito" font-size="14.00"> </text>
<text text-anchor="middle" x="579.45" y="-884.569" font-family="Nunito" font-size="14.00">BelongsTo</text>
<text text-anchor="middle" x="579.45" y="-869.569" font-family="Nunito" font-size="14.00">user</text>
</g>
<!-- appscreen&#45;&gt;appchannel -->
<g id="edge7" class="edge"><title>appscreen:channel_id&#45;&gt;appchannel:id</title>
<path fill="none" stroke="#39cccc" d="M301.713,-507C282.691,-525.271 233,-573 233,-573 233,-573 175.889,-683.257 163.396,-707.375"/>
<polygon fill="#39cccc" stroke="#39cccc" points="301.788,-506.927 312.117,-503.245 305.394,-503.464 309,-500 309,-500 309,-500 305.394,-503.464 305.883,-496.755 301.788,-506.927 301.788,-506.927"/>
<polygon fill="#39cccc" stroke="#39cccc" points="165.9,-713.412 157.02,-708.812 157.94,-707.036 166.82,-711.636 165.9,-713.412"/>
<polyline fill="none" stroke="#39cccc" points="161,-712 163.3,-707.56 "/>
<text text-anchor="middle" x="235" y="-576.8" font-family="Nunito" font-size="14.00"> </text>
<text text-anchor="middle" x="254.609" y="-594.188" font-family="Nunito" font-size="14.00">BelongsTo</text>
<text text-anchor="middle" x="254.609" y="-579.188" font-family="Nunito" font-size="14.00">channel</text>
</g>
<!-- applayout -->
<g id="node5" class="node"><title>applayout</title>
<polygon fill="none" stroke="black" points="885,-454 724,-454 724,-232 885,-232 885,-454"/>
<polygon fill="#d3d3d3" stroke="none" points="724.5,-417 724.5,-454 885.5,-454 885.5,-417 724.5,-417"/>
<polygon fill="none" stroke="black" points="724.5,-417 724.5,-454 885.5,-454 885.5,-417 724.5,-417"/>
<text text-anchor="start" x="783" y="-431.8" font-family="Nunito" font-size="14.00" fill="#333333">Layout</text>
<polygon fill="#ffffff" stroke="none" points="724.5,-380 724.5,-417 885.5,-417 885.5,-380 724.5,-380"/>
<polygon fill="none" stroke="black" points="724.5,-380 724.5,-417 885.5,-417 885.5,-380 724.5,-380"/>
<text text-anchor="start" x="735.5" y="-394.8" font-family="Nunito" font-size="14.00" fill="#333333">id (bigint)</text>
<polygon fill="#ffffff" stroke="none" points="724.5,-343 724.5,-380 885.5,-380 885.5,-343 724.5,-343"/>
<polygon fill="none" stroke="black" points="724.5,-343 724.5,-380 885.5,-380 885.5,-343 724.5,-343"/>
<text text-anchor="start" x="735.5" y="-357.8" font-family="Nunito" font-size="14.00" fill="#333333">name (string)</text>
<polygon fill="#ffffff" stroke="none" points="724.5,-306 724.5,-343 885.5,-343 885.5,-306 724.5,-306"/>
<polygon fill="none" stroke="black" points="724.5,-306 724.5,-343 885.5,-343 885.5,-306 724.5,-306"/>
<text text-anchor="start" x="735.5" y="-320.8" font-family="Nunito" font-size="14.00" fill="#333333">description (string)</text>
<polygon fill="#ffffff" stroke="none" points="724.5,-269 724.5,-306 885.5,-306 885.5,-269 724.5,-269"/>
<polygon fill="none" stroke="black" points="724.5,-269 724.5,-306 885.5,-306 885.5,-269 724.5,-269"/>
<text text-anchor="start" x="735.5" y="-283.8" font-family="Nunito" font-size="14.00" fill="#333333">created_at (datetime)</text>
<polygon fill="#ffffff" stroke="none" points="724.5,-232 724.5,-269 885.5,-269 885.5,-232 724.5,-232"/>
<polygon fill="none" stroke="black" points="724.5,-232 724.5,-269 885.5,-269 885.5,-232 724.5,-232"/>
<text text-anchor="start" x="735.5" y="-246.8" font-family="Nunito" font-size="14.00" fill="#333333">updated_at (datetime)</text>
</g>
<!-- appscreen&#45;&gt;applayout -->
<g id="edge8" class="edge"><title>appscreen:layout_id&#45;&gt;applayout:id</title>
<path fill="none" stroke="#39cccc" d="M568.798,-459.188C599.923,-447.079 695.84,-409.761 718.613,-400.901"/>
<polygon fill="#39cccc" stroke="#39cccc" points="568.32,-459.374 557.368,-458.806 563.66,-461.187 559,-463 559,-463 559,-463 563.66,-461.187 560.632,-467.194 568.32,-459.374 568.32,-459.374"/>
<polygon fill="#39cccc" stroke="#39cccc" points="720.755,-394.703 724.381,-404.022 722.517,-404.748 718.891,-395.428 720.755,-394.703"/>
<polyline fill="none" stroke="#39cccc" points="723.5,-399 718.84,-400.813 "/>
<text text-anchor="middle" x="633" y="-438.8" font-family="Nunito" font-size="14.00"> </text>
<text text-anchor="middle" x="609.205" y="-418.845" font-family="Nunito" font-size="14.00">BelongsTo</text>
<text text-anchor="middle" x="609.205" y="-403.845" font-family="Nunito" font-size="14.00">layout</text>
</g>
<!-- appuser&#45;&gt;appdevice -->
<g id="edge10" class="edge"><title>appuser:id&#45;&gt;appdevice:user_id</title>
<path fill="none" stroke="#ff851b" d="M707,-887C707,-887 635,-860 635,-860 635,-860 631,-860 631,-860 631,-860 552.876,-890.57 525.411,-901.317"/>
<polygon fill="#ff851b" stroke="#ff851b" points="525.312,-901.356 514.36,-900.809 520.656,-903.178 516,-905 516,-905 516,-905 520.656,-903.178 517.64,-909.191 525.312,-901.356 525.312,-901.356"/>
<text text-anchor="middle" x="633" y="-863.8" font-family="Nunito" font-size="14.00"> </text>
<text text-anchor="middle" x="585.372" y="-854.719" font-family="Nunito" font-size="14.00">HasMany</text>
<text text-anchor="middle" x="585.372" y="-839.719" font-family="Nunito" font-size="14.00">devices</text>
</g>
<!-- approle -->
<g id="node6" class="node"><title>approle</title>
<polygon fill="none" stroke="black" points="1211,-831.5 1050,-831.5 1050,-646.5 1211,-646.5 1211,-831.5"/>
<polygon fill="#d3d3d3" stroke="none" points="1050.5,-794 1050.5,-831 1211.5,-831 1211.5,-794 1050.5,-794"/>
<polygon fill="none" stroke="black" points="1050.5,-794 1050.5,-831 1211.5,-831 1211.5,-794 1050.5,-794"/>
<text text-anchor="start" x="1116.5" y="-808.8" font-family="Nunito" font-size="14.00" fill="#333333">Role</text>
<polygon fill="#ffffff" stroke="none" points="1050.5,-757 1050.5,-794 1211.5,-794 1211.5,-757 1050.5,-757"/>
<polygon fill="none" stroke="black" points="1050.5,-757 1050.5,-794 1211.5,-794 1211.5,-757 1050.5,-757"/>
<text text-anchor="start" x="1061.5" y="-771.8" font-family="Nunito" font-size="14.00" fill="#333333">id (bigint)</text>
<polygon fill="#ffffff" stroke="none" points="1050.5,-720 1050.5,-757 1211.5,-757 1211.5,-720 1050.5,-720"/>
<polygon fill="none" stroke="black" points="1050.5,-720 1050.5,-757 1211.5,-757 1211.5,-720 1050.5,-720"/>
<text text-anchor="start" x="1061.5" y="-734.8" font-family="Nunito" font-size="14.00" fill="#333333">name (string)</text>
<polygon fill="#ffffff" stroke="none" points="1050.5,-683 1050.5,-720 1211.5,-720 1211.5,-683 1050.5,-683"/>
<polygon fill="none" stroke="black" points="1050.5,-683 1050.5,-720 1211.5,-720 1211.5,-683 1050.5,-683"/>
<text text-anchor="start" x="1061.5" y="-697.8" font-family="Nunito" font-size="14.00" fill="#333333">created_at (datetime)</text>
<polygon fill="#ffffff" stroke="none" points="1050.5,-646 1050.5,-683 1211.5,-683 1211.5,-646 1050.5,-646"/>
<polygon fill="none" stroke="black" points="1050.5,-646 1050.5,-683 1211.5,-683 1211.5,-646 1050.5,-646"/>
<text text-anchor="start" x="1061.5" y="-660.8" font-family="Nunito" font-size="14.00" fill="#333333">updated_at (datetime)</text>
</g>
<!-- appuser&#45;&gt;approle -->
<g id="edge9" class="edge"><title>appuser&#45;&gt;approle</title>
<path fill="none" stroke="#f012be" d="M902.272,-739C947.608,-739 1001.13,-739 1044.83,-739"/>
<polygon fill="#f012be" stroke="#f012be" points="1048.84,-734 1048.84,-744 1046.84,-744 1046.84,-734 1048.84,-734"/>
<polyline fill="none" stroke="#f012be" points="1049.84,-739 1044.84,-739 "/>
<text text-anchor="middle" x="976" y="-742.8" font-family="Nunito" font-size="14.00"> </text>
<text text-anchor="middle" x="1025.55" y="-727.8" font-family="Nunito" font-size="14.00">BelongsToMany</text>
<text text-anchor="middle" x="1025.55" y="-712.8" font-family="Nunito" font-size="14.00">roles</text>
</g>
<!-- applayout&#45;&gt;appscreen -->
<g id="edge5" class="edge"><title>applayout:id&#45;&gt;appscreen:layout_id</title>
<path fill="none" stroke="#ff851b" d="M723.5,-399C723.5,-399 635,-376 635,-376 635,-376 631,-376 631,-376 631,-376 583.011,-433.987 565.39,-455.279"/>
<polygon fill="#ff851b" stroke="#ff851b" points="565.376,-455.296 555.533,-460.131 562.188,-459.148 559,-463 559,-463 559,-463 562.188,-459.148 562.467,-465.869 565.376,-455.296 565.376,-455.296"/>
<text text-anchor="middle" x="633" y="-379.8" font-family="Nunito" font-size="14.00"> </text>
<text text-anchor="middle" x="598.119" y="-367.676" font-family="Nunito" font-size="14.00">HasMany</text>
<text text-anchor="middle" x="598.119" y="-352.676" font-family="Nunito" font-size="14.00">screens</text>
</g>
<!-- approle&#45;&gt;appuser -->
<g id="edge6" class="edge"><title>approle&#45;&gt;appuser</title>
<path fill="none" stroke="#f012be" d="M1049.76,-712.156C1013.26,-699.869 978,-688 978,-688 978,-688 974,-688 974,-688 974,-688 942.585,-697.508 906.884,-708.314"/>
<polygon fill="#f012be" stroke="#f012be" points="904.458,-714.272 901.561,-704.701 903.475,-704.122 906.372,-713.693 904.458,-714.272"/>
<polyline fill="none" stroke="#f012be" points="902.052,-709.777 906.838,-708.328 "/>
<text text-anchor="middle" x="976" y="-691.8" font-family="Nunito" font-size="14.00"> </text>
<text text-anchor="middle" x="926.754" y="-677.054" font-family="Nunito" font-size="14.00">BelongsToMany</text>
<text text-anchor="middle" x="926.754" y="-662.054" font-family="Nunito" font-size="14.00">users</text>
</g>
</g>
</svg>
