<svg version="1.1"
      xmlns="http://www.w3.org/2000/svg"
      xmlns:xlink="http://www.w3.org/1999/xlink"  id="snapshot-13240" width="250" height="250" viewBox="0 0 250 250"><desc>This image was made on Patterninja.com</desc><defs>
<!-- image 10977 -->
<g id="transformed-10977" data-image="10977" transform="translate(-62.5, -62.5) rotate(0, 62.5, 62.5)"><g><svg version="1.1" width="125px" height="125px" viewBox="0 0 125 125"><g id="original-10977"><svg xmlns="http://www.w3.org/2000/svg" fill-rule="evenodd" stroke-miterlimit="2" viewBox="0 0 300 300" clip-rule="evenodd" stroke-linejoin="round" xmlns:xlink="http://www.w3.org/1999/xlink" version="1.1" preserveAspectRatio="xMidYMid meet">
  <path d="M120.883 41.333c59.975-16.07 121.713 19.575 137.784 79.55 16.07 59.975-19.575 121.713-79.55 137.784-59.975 16.07-121.713-19.575-137.784-79.55-16.07-59.975 19.575-121.713 79.55-137.784zM86.064 142.566l-23.705 6.352 2.163 8.075 19.464-5.215 87.035 74.117 38.083-107.642 18.418-4.935-2.163-8.076-22.668 6.074-35.5 100.338-81.127-69.088zm110.93-44.306l-114.92 30.793 79.771 63.408 35.149-94.201zm-95.561 31.589l25.902-6.94 22.703 22.954 9.976-31.392 22.925-6.142-25.076 69.273-56.43-47.753z" fill="rgba(230, 230, 230, 1)" stroke="none"/>
</svg>
</g></svg></g></g>
<!-- /image 10977 -->

<!-- image 50073 -->
<g id="transformed-50073" data-image="50073" transform="translate(62.5, 62.5) rotate(0, 62.5, 62.5)"><g><svg version="1.1" width="125px" height="125px" viewBox="0 0 125 125"><g id="original-50073"><svg xmlns="http://www.w3.org/2000/svg" fill-rule="evenodd" stroke-miterlimit="2" viewBox="0 0 300 300" clip-rule="evenodd" stroke-linejoin="round" xmlns:xlink="http://www.w3.org/1999/xlink" version="1.1" preserveAspectRatio="xMidYMid meet">
  <path d="M120.883 41.333c59.975-16.07 121.713 19.575 137.784 79.55 16.07 59.975-19.575 121.713-79.55 137.784-59.975 16.07-121.713-19.575-137.784-79.55-16.07-59.975 19.575-121.713 79.55-137.784zM86.064 142.566l-23.705 6.352 2.163 8.075 19.464-5.215 87.035 74.117 38.083-107.642 18.418-4.935-2.163-8.076-22.668 6.074-35.5 100.338-81.127-69.088zm110.93-44.306l-114.92 30.793 79.771 63.408 35.149-94.201zm-95.561 31.589l25.902-6.94 22.703 22.954 9.976-31.392 22.925-6.142-25.076 69.273-56.43-47.753z" fill="rgba(230, 230, 230, 1)" stroke="none"/>
</svg>
</g></svg></g></g>
<!-- /image 50073 -->
</defs><rect x="0" y="0" width="250" height="250" fill="rgba(255, 255, 255, 1)"></rect><use xlink:href="#transformed-10977" transform="translate(-250, -250)"></use><use xlink:href="#transformed-10977" transform="translate(0, -250)"></use><use xlink:href="#transformed-10977" transform="translate(250, -250)"></use><use xlink:href="#transformed-10977" transform="translate(-250, 0)"></use><use xlink:href="#transformed-10977" transform="translate(0, 0)"></use><use xlink:href="#transformed-10977" transform="translate(250, 0)"></use><use xlink:href="#transformed-10977" transform="translate(-250, 250)"></use><use xlink:href="#transformed-10977" transform="translate(0, 250)"></use><use xlink:href="#transformed-10977" transform="translate(250, 250)"></use><use xlink:href="#transformed-50073" transform="translate(-250, -250)"></use><use xlink:href="#transformed-50073" transform="translate(0, -250)"></use><use xlink:href="#transformed-50073" transform="translate(250, -250)"></use><use xlink:href="#transformed-50073" transform="translate(-250, 0)"></use><use xlink:href="#transformed-50073" transform="translate(0, 0)"></use><use xlink:href="#transformed-50073" transform="translate(250, 0)"></use><use xlink:href="#transformed-50073" transform="translate(-250, 250)"></use><use xlink:href="#transformed-50073" transform="translate(0, 250)"></use><use xlink:href="#transformed-50073" transform="translate(250, 250)"></use></svg>