<svg version="1.1"
      xmlns="http://www.w3.org/2000/svg"
      xmlns:xlink="http://www.w3.org/1999/xlink"  id="snapshot-41923" width="250" height="250" viewBox="0 0 250 250"><desc>This image was made on Patterninja.com</desc><defs>
<!-- image 10977 -->
<g id="transformed-10977" data-image="10977" transform="translate(-125, -125) rotate(0, 125, 125)"><g><svg version="1.1" width="250px" height="250px" viewBox="0 0 250 250"><g id="original-10977"><svg xmlns="http://www.w3.org/2000/svg" fill-rule="evenodd" stroke-miterlimit="2" viewBox="0 0 300 300" clip-rule="evenodd" stroke-linejoin="round" xmlns:xlink="http://www.w3.org/1999/xlink" version="1.1" preserveAspectRatio="xMidYMid meet">
  <path d="M120.883 41.333c59.975-16.07 121.713 19.575 137.784 79.55 16.07 59.975-19.575 121.713-79.55 137.784-59.975 16.07-121.713-19.575-137.784-79.55-16.07-59.975 19.575-121.713 79.55-137.784zM86.064 142.566l-23.705 6.352 2.163 8.075 19.464-5.215 87.035 74.117 38.083-107.642 18.418-4.935-2.163-8.076-22.668 6.074-35.5 100.338-81.127-69.088zm110.93-44.306l-114.92 30.793 79.771 63.408 35.149-94.201zm-95.561 31.589l25.902-6.94 22.703 22.954 9.976-31.392 22.925-6.142-25.076 69.273-56.43-47.753z" fill="rgba(206, 206, 206, 1)" stroke="none"/>
</svg>
</g></svg></g></g>
<!-- /image 10977 -->

<!-- image 48845 -->
<g id="transformed-48845" data-image="48845" transform="translate(59.9033012149599, 63.90330121495994) rotate(0, 62.0966987850401, 62.09669878504006)"><g><svg version="1.1" width="124.1933975700802px" height="124.19339757008012px" viewBox="0 0 124.1933975700802 124.19339757008012"><g id="original-48845"><svg xmlns="http://www.w3.org/2000/svg" fill-rule="evenodd" stroke-miterlimit="2" viewBox="0 0 300 300" clip-rule="evenodd" stroke-linejoin="round" xmlns:xlink="http://www.w3.org/1999/xlink" version="1.1" preserveAspectRatio="xMidYMid meet">
  <path d="M120.883 41.333c59.975-16.07 121.713 19.575 137.784 79.55 16.07 59.975-19.575 121.713-79.55 137.784-59.975 16.07-121.713-19.575-137.784-79.55-16.07-59.975 19.575-121.713 79.55-137.784zM86.064 142.566l-23.705 6.352 2.163 8.075 19.464-5.215 87.035 74.117 38.083-107.642 18.418-4.935-2.163-8.076-22.668 6.074-35.5 100.338-81.127-69.088zm110.93-44.306l-114.92 30.793 79.771 63.408 35.149-94.201zm-95.561 31.589l25.902-6.94 22.703 22.954 9.976-31.392 22.925-6.142-25.076 69.273-56.43-47.753z" fill="rgba(58, 58, 58, 1)" stroke="none"/>
</svg>
</g></svg></g></g>
<!-- /image 48845 -->
</defs><rect x="0" y="0" width="250" height="250" fill="rgba(87, 87, 87, 1)"></rect><use xlink:href="#transformed-10977" transform="translate(-250, -250)"></use><use xlink:href="#transformed-10977" transform="translate(0, -250)"></use><use xlink:href="#transformed-10977" transform="translate(250, -250)"></use><use xlink:href="#transformed-10977" transform="translate(-250, 0)"></use><use xlink:href="#transformed-10977" transform="translate(0, 0)"></use><use xlink:href="#transformed-10977" transform="translate(250, 0)"></use><use xlink:href="#transformed-10977" transform="translate(-250, 250)"></use><use xlink:href="#transformed-10977" transform="translate(0, 250)"></use><use xlink:href="#transformed-10977" transform="translate(250, 250)"></use><use xlink:href="#transformed-48845" transform="translate(-250, -250)"></use><use xlink:href="#transformed-48845" transform="translate(0, -250)"></use><use xlink:href="#transformed-48845" transform="translate(250, -250)"></use><use xlink:href="#transformed-48845" transform="translate(-250, 0)"></use><use xlink:href="#transformed-48845" transform="translate(0, 0)"></use><use xlink:href="#transformed-48845" transform="translate(250, 0)"></use><use xlink:href="#transformed-48845" transform="translate(-250, 250)"></use><use xlink:href="#transformed-48845" transform="translate(0, 250)"></use><use xlink:href="#transformed-48845" transform="translate(250, 250)"></use></svg>